<svg xmlns="http://www.w3.org/2000/svg" x="0px" y="0px"
width="50" height="50"
viewBox="0 0 50 50"
style=" fill:#000000;"><path xmlns="http://www.w3.org/2000/svg" d="M 9 4 C 6.24958 4 4 6.24958 4 9 L 4 41 C 4 43.7504 6.24958 46 9 46 L 41 46 C 43.7504 46 46 43.7504 46 41 L 46 9 C 46 6.24958 43.7504 4 41 4 L 9 4 Z M 9 6 L 41 6 C 42.6716 6 44 7.32842 44 9 L 44 41 C 44 42.6716 42.6716 44 41 44 L 9 44 C 7.32842 44 6 42.6716 6 41 L 6 9 C 6 7.32842 7.32842 6 9 6 Z M 26.043 10 A 1.0001 1.0001 0 0 0 25.043 10.998 C 25.043 10.998 25.032 15.8733 25.0215 20.7598 C 25.0162 23.203 25.0098 25.6488 25.0059 27.4902 C 25.0019 29.3317 25 30.4968 25 30.5938 C 25 32.409 23.3514 33.8926 21.4727 33.8926 C 19.6089 33.8926 18.1211 32.4029 18.1211 30.5391 C 18.1211 28.6753 19.6089 27.1875 21.4727 27.1875 C 21.5358 27.1875 21.6631 27.2082 21.8809 27.2344 A 1.0001 1.0001 0 0 0 23 26.2402 L 23 22.0391 A 1.0001 1.0001 0 0 0 22.0625 21.041 C 21.9067 21.0312 21.7106 21.0117 21.4727 21.0117 C 16.2231 21.0117 11.9453 25.2895 11.9453 30.5391 C 11.9453 35.7886 16.2231 40.0664 21.4727 40.0664 C 26.722 40.0664 31 35.7886 31 30.5391 L 31 21.4902 C 32.4546 22.6536 34.2675 23.3906 36.2695 23.3906 C 36.5426 23.3906 36.8023 23.3744 37.0508 23.3516 A 1.0001 1.0001 0 0 0 37.959 22.3555 L 37.959 17.6855 A 1.0001 1.0001 0 0 0 37.0313 16.6875 C 33.8866 16.4619 31.3798 14.0122 31.0527 10.8965 A 1.0001 1.0001 0 0 0 30.0586 10 L 26.043 10 Z M 27.041 12 L 29.3223 12 C 30.049 15.2987 32.6267 17.8144 35.959 18.4453 L 35.959 21.3105 C 33.8201 21.2019 31.9415 20.1349 30.8359 18.4531 A 1.0001 1.0001 0 0 0 29 19.0039 L 29 30.5391 C 29 34.7075 25.6413 38.0664 21.4727 38.0664 C 17.3042 38.0664 13.9453 34.7075 13.9453 30.5391 C 13.9453 26.5385 17.0661 23.3632 21 23.1074 L 21 25.2832 C 18.2864 25.5357 16.1211 27.7622 16.1211 30.5391 C 16.1211 33.4833 18.5284 35.8926 21.4727 35.8926 C 24.4019 35.8926 27 33.5865 27 30.5938 C 27 30.6427 27.0019 29.3356 27.0059 27.4941 C 27.0098 25.6527 27.0162 23.2069 27.0215 20.7637 C 27.0309 16.3768 27.0392 12.8492 27.041 12 Z" /></svg>